<?xml version="1.0" encoding="UTF-8"?>
<svg version="1.1" xmlns="http://www.w3.org/2000/svg" width="1024" height="1024">
<path d="M0 0 C3.57894017 2.77517212 6.78522602 5.814319 10 9 C11.03943115 9.99186453 12.07984783 10.982697 13.12109375 11.97265625 C20.32558668 18.90556397 26.69242113 26.22201355 32.67041016 34.23046875 C33.97178981 35.96245549 35.30078164 37.66959047 36.63671875 39.375 C81.12914102 97.0292202 89.58482367 166.14590787 90.625 236.5625 C90.65010084 238.20116783 90.65010084 238.20116783 90.67570877 239.87294006 C91.13968534 274.6898443 89.0583987 301.24418898 67.82763672 330.04492188 C65.10031678 333.76698647 62.81359453 337.59267982 60.72265625 341.703125 C60.18519775 342.75661133 59.64773926 343.81009766 59.09399414 344.89550781 C57.84834917 348.43034857 57.79616122 351.27884554 58 355 C58.52464844 354.25878906 59.04929687 353.51757812 59.58984375 352.75390625 C71.07697095 337.13829406 90.64748469 312.49544584 111 309 C129.02801565 307.19456917 139.43256078 312.36261642 153.3046875 323.68359375 C189.01689558 353.20919151 211.54783318 395.52837287 216.27201086 441.65595502 C216.89424284 448.64220023 217.131835 455.54297315 217.09092712 462.55439758 C217.08880944 463.65254278 217.08669176 464.75068797 217.08450991 465.8821103 C217.07651271 469.52731075 217.06146969 473.17244847 217.04663086 476.81762695 C217.03983367 479.44527039 217.0336236 482.07291541 217.0279541 484.70056152 C217.01881366 488.89112867 217.00924196 493.08169225 216.99737632 497.27225268 C216.96823191 507.6555704 216.95682113 518.03880806 216.95594788 528.42216492 C216.95585417 529.17556228 216.95576046 529.92895965 216.95566391 530.70518724 C216.95494254 536.90415473 216.95493831 543.10312218 216.955164 549.30208971 C216.95532511 554.8715594 216.95481384 560.44102853 216.95336914 566.01049805 C216.95307215 567.2011301 216.95307215 567.2011301 216.95276917 568.41581532 C216.94857088 581.27666304 216.91199526 594.13723748 216.86441296 606.99798892 C216.81627456 620.234371 216.8063896 633.47040331 216.83075243 646.70685166 C216.84449123 654.8537465 216.82845748 662.99944396 216.77328426 671.14616849 C216.73822983 676.73479494 216.74027346 682.3226614 216.77066921 687.91131154 C216.78707386 691.12825051 216.78229442 694.34261652 216.74402809 697.55943108 C216.56985795 713.16623626 217.7317949 723.01226183 228 735 C229.87977361 737.96934422 231.55941956 741.01165948 233.1875 744.125 C233.59621338 744.90649414 234.00492676 745.68798828 234.42602539 746.49316406 C246.31085266 770.03457774 249.1745046 794.46701397 249.09765625 820.44921875 C249.09578781 822.3167975 249.09436592 824.18437675 249.09336853 826.05195618 C249.08957692 830.93282458 249.07977583 835.81366254 249.06866455 840.69451904 C249.05656449 846.56927613 249.05203219 852.44404349 249.04621124 858.31880951 C249.03656184 867.21256075 249.01738193 876.10624539 249 885 C233.49 885.33 217.98 885.66 202 886 C206.93434927 895.82909546 206.93434927 895.82909546 211.87304688 905.65600586 C212.48843973 906.88387241 213.10368442 908.11181323 213.71875 909.33984375 C214.04262695 909.98248169 214.36650391 910.62511963 214.70019531 911.28723145 C217 915.8859282 217 915.8859282 217 917 C153.31 917 89.62 917 24 917 C27.72528895 905.82413314 33.73164584 895.53670832 39 885 C18.87 885.33 -1.26 885.66 -22 886 C-17.06565073 895.82909546 -17.06565073 895.82909546 -12.12695312 905.65600586 C-11.51156027 906.88387241 -10.89631558 908.11181323 -10.28125 909.33984375 C-9.95737305 909.98248169 -9.63349609 910.62511963 -9.29980469 911.28723145 C-7 915.8859282 -7 915.8859282 -7 917 C-28.45 917 -49.9 917 -72 917 C-68.27471105 905.82413314 -62.26835416 895.53670832 -57 885 C-77.13 885.33 -97.26 885.66 -118 886 C-113.06565073 895.82909546 -113.06565073 895.82909546 -108.12695312 905.65600586 C-107.51156027 906.88387241 -106.89631558 908.11181323 -106.28125 909.33984375 C-105.79543457 910.30380066 -105.79543457 910.30380066 -105.29980469 911.28723145 C-103 915.8859282 -103 915.8859282 -103 917 C-166.69 917 -230.38 917 -296 917 C-294.5207999 912.56239971 -293.04322781 908.8503139 -290.9609375 904.7265625 C-290.43806152 903.68580566 -289.91518555 902.64504883 -289.37646484 901.57275391 C-288.71598145 900.26999512 -288.05549805 898.96723633 -287.375 897.625 C-285.27125 893.45875 -283.1675 889.2925 -281 885 C-296.51 885 -312.02 885 -328 885 C-328.12032643 862.97135061 -328.12032643 862.97135061 -328.14648438 853.48242188 C-328.16432315 847.0421596 -328.18528017 840.60202693 -328.22631836 834.16186523 C-328.25924233 828.96172109 -328.27692167 823.7617162 -328.28463173 818.56147575 C-328.29011659 816.59104156 -328.30082442 814.6206138 -328.31719017 812.65023994 C-328.56793876 781.16979847 -320.32537846 750.39414986 -301 725 C-299.97116998 724.03097543 -299.97116998 724.03097543 -298.92155552 723.04237461 C-296.04047557 718.48079707 -296.45175665 714.30965571 -296.50120544 709.01731873 C-296.49582089 707.89601391 -296.49043634 706.7747091 -296.48488861 705.61942536 C-296.47159042 701.85340323 -296.48678045 698.08802971 -296.50170898 694.32202148 C-296.49788669 691.62468474 -296.49246684 688.92739645 -296.48498535 686.23007202 C-296.47189028 680.41446259 -296.47306315 674.5989969 -296.48357964 668.78338432 C-296.49853828 660.35323638 -296.48858821 651.92325646 -296.47206045 643.49311806 C-296.44558731 629.78683005 -296.43474064 616.08057974 -296.43579102 602.37426758 C-296.43584934 601.553941 -296.43590766 600.73361443 -296.43596775 599.88842947 C-296.43623352 596.56601643 -296.43655076 593.2436034 -296.43693101 589.92119038 C-296.43789457 580.80789268 -296.43657339 571.69459614 -296.43383789 562.58129883 C-296.433598 561.76652273 -296.43335811 560.95174664 -296.43311094 560.11228036 C-296.42868791 546.47501741 -296.41238465 532.83778922 -296.3886171 519.2005468 C-296.37461882 510.80502988 -296.37160113 502.40964608 -296.38323999 494.01412476 C-296.3906228 488.24386871 -296.38741942 482.47367916 -296.37628155 476.70342939 C-296.37027147 473.38544602 -296.37064307 470.06780167 -296.38115883 466.74980736 C-296.43658502 448.13311425 -295.47396416 430.0674808 -290.375 412.0625 C-290.12194092 411.15975342 -289.86888184 410.25700684 -289.6081543 409.3269043 C-281.68862082 382.27456732 -267.33741561 358.38434575 -248 338 C-247.30680664 337.2579834 -247.30680664 337.2579834 -246.59960938 336.50097656 C-234.70178777 323.83127793 -220.60514198 309.3219069 -202.40014648 308.54003906 C-182.8589723 308.21405467 -169.6638539 320.19783058 -156 333 C-149.09680769 339.83897657 -142.74988786 347.16476549 -137 355 C-136.40158074 349.15001602 -138.41254811 345.37488398 -141.0234375 340.33203125 C-141.65374374 339.08059578 -141.65374374 339.08059578 -142.29678345 337.80387878 C-143.64502429 335.13425628 -145.00982848 332.47349716 -146.375 329.8125 C-147.25497315 328.07410736 -148.13388903 326.33517911 -149.01171875 324.59570312 C-154.60218076 313.54883517 -160.33979252 302.58042032 -166.13711548 291.64091492 C-167.65399002 288.75633187 -168.12780845 287.05769162 -168.14044189 283.78965759 C-168.14615204 282.90589447 -168.15186218 282.02213135 -168.15774536 281.11158752 C-168.15942215 279.65244179 -168.15942215 279.65244179 -168.16113281 278.16381836 C-168.16609772 277.14054443 -168.17106262 276.11727051 -168.17617798 275.06298828 C-168.1908521 271.65526665 -168.19761771 268.24759189 -168.203125 264.83984375 C-168.20888138 262.45878601 -168.21463905 260.07772827 -168.22039795 257.69667053 C-168.23092904 252.68197413 -168.23675486 247.66729381 -168.24023438 242.65258789 C-168.24566007 236.29668424 -168.26954961 229.94100131 -168.29820633 223.58516598 C-168.31706763 218.65073588 -168.32205106 213.71635584 -168.32357025 208.78189278 C-168.3265554 206.44407535 -168.33443948 204.10625789 -168.34775543 201.76847649 C-168.45638935 181.19151802 -167.05086454 160.720738 -162.375 140.625 C-162.12339111 139.52470459 -161.87178223 138.42440918 -161.61254883 137.29077148 C-154.12452818 105.83305472 -141.231672 75.73162483 -123 49 C-122.60699707 48.4215332 -122.21399414 47.84306641 -121.80908203 47.24707031 C-115.73145989 38.36458024 -109.12473504 30.06206897 -102 22 C-101.30922363 21.21447754 -101.30922363 21.21447754 -100.60449219 20.41308594 C-74.46744601 -9.16738328 -35.86624453 -23.6444574 0 0 Z M-247 885 C-239.91177305 900.21155778 -239.91177305 900.21155778 -232 915 C-229.58746905 911.9755078 -227.81400701 908.88561663 -226.08203125 905.4296875 C-225.55029297 904.36878906 -225.01855469 903.30789063 -224.47070312 902.21484375 C-223.92349609 901.11269531 -223.37628906 900.01054688 -222.8125 898.875 C-222.25369141 897.76511719 -221.69488281 896.65523437 -221.11914062 895.51171875 C-220.59126953 894.45339844 -220.06339844 893.39507813 -219.51953125 892.3046875 C-219.03589111 891.33515137 -218.55225098 890.36561523 -218.05395508 889.36669922 C-216.86439613 887.12729089 -216.86439613 887.12729089 -217 885 C-226.9 885 -236.8 885 -247 885 Z M-183 885 C-175.91177305 900.21155778 -175.91177305 900.21155778 -168 915 C-165.58746905 911.9755078 -163.81400701 908.88561663 -162.08203125 905.4296875 C-161.55029297 904.36878906 -161.01855469 903.30789063 -160.47070312 902.21484375 C-159.92349609 901.11269531 -159.37628906 900.01054688 -158.8125 898.875 C-158.25369141 897.76511719 -157.69488281 896.65523437 -157.11914062 895.51171875 C-156.59126953 894.45339844 -156.06339844 893.39507813 -155.51953125 892.3046875 C-155.03589111 891.33515137 -154.55225098 890.36561523 -154.05395508 889.36669922 C-152.86439613 887.12729089 -152.86439613 887.12729089 -153 885 C-162.9 885 -172.8 885 -183 885 Z M73 885 C80.08822695 900.21155778 80.08822695 900.21155778 88 915 C90.41253095 911.9755078 92.18599299 908.88561663 93.91796875 905.4296875 C94.44970703 904.36878906 94.98144531 903.30789063 95.52929688 902.21484375 C96.07650391 901.11269531 96.62371094 900.01054688 97.1875 898.875 C97.74630859 897.76511719 98.30511719 896.65523437 98.88085938 895.51171875 C99.40873047 894.45339844 99.93660156 893.39507813 100.48046875 892.3046875 C100.96410889 891.33515137 101.44774902 890.36561523 101.94604492 889.36669922 C103.13560387 887.12729089 103.13560387 887.12729089 103 885 C93.1 885 83.2 885 73 885 Z M137 885 C144.08822695 900.21155778 144.08822695 900.21155778 152 915 C154.41253095 911.9755078 156.18599299 908.88561663 157.91796875 905.4296875 C158.44970703 904.36878906 158.98144531 903.30789063 159.52929688 902.21484375 C160.07650391 901.11269531 160.62371094 900.01054688 161.1875 898.875 C161.74630859 897.76511719 162.30511719 896.65523437 162.88085938 895.51171875 C163.40873047 894.45339844 163.93660156 893.39507813 164.48046875 892.3046875 C164.96410889 891.33515137 165.44774902 890.36561523 165.94604492 889.36669922 C167.13560387 887.12729089 167.13560387 887.12729089 167 885 C157.1 885 147.2 885 137 885 Z " fill="#010101" transform="translate(549,43)"/>
<path d="M0 0 C42.24 0 84.48 0 128 0 C128.17640325 44.14593083 128.32410088 88.29152895 128.40852264 132.43771144 C128.41852815 137.6509391 128.42888274 142.86416603 128.43945312 148.07739258 C128.44155161 149.1152411 128.44365009 150.15308963 128.44581217 151.22238811 C128.48061161 168.02157558 128.54368203 184.82054378 128.61722237 201.61960123 C128.69206567 218.86023986 128.73647681 236.10076374 128.75270796 253.34155816 C128.7636786 263.97801974 128.79831264 274.61386152 128.86333174 285.25013229 C128.90565805 292.5463476 128.91839217 299.84224305 128.90801102 307.13857219 C128.90289265 311.34683863 128.91067169 315.55402298 128.9536438 319.76209641 C128.99275257 323.62014277 128.99443216 327.47638603 128.96719116 331.33451774 C128.96382778 332.72505032 128.97383197 334.11569824 128.99906546 335.50600592 C129.17578794 345.8502304 126.6590309 351.22290017 120 359 C118.33485395 361.54159247 116.83664636 364.14955761 115.375 366.8125 C114.81171997 367.83404175 114.81171997 367.83404175 114.23706055 368.8762207 C108.86673368 378.77571117 104.90204379 388.77240446 101.75 399.5625 C101.50354736 400.40063232 101.25709473 401.23876465 101.00317383 402.10229492 C97.80526216 413.54204184 96.70153474 424.89120397 96.5859375 436.73828125 C96.56829346 437.84570679 96.55064941 438.95313232 96.5324707 440.09411621 C96.47017759 444.16677267 96.42346027 448.23965546 96.375 452.3125 C96.25125 461.449375 96.1275 470.58625 96 480 C74.88 480 53.76 480 32 480 C31.625 452.3125 31.625 452.3125 31.52197266 443.65356445 C31.48671503 441.34845905 31.4507882 439.04336374 31.4140625 436.73828125 C31.40270264 435.5740564 31.39134277 434.40983154 31.37963867 433.21032715 C31.24275254 425.32453134 30.39439237 417.76026501 29 410 C28.8659375 409.24369797 28.731875 408.48739594 28.59375 407.70817566 C25.75458764 392.66371593 19.90218496 378.84785788 12.5 365.5 C12.16911377 364.90243896 11.83822754 364.30487793 11.49731445 363.68920898 C9.84833639 360.83079768 8.20169418 358.23475413 6.04273272 355.72191447 C-0.32439305 348.09400916 -1.13430172 342.24793236 -0.96203613 332.5037384 C-0.96553114 331.06292676 -0.97254756 329.62212016 -0.98274946 328.1813404 C-1.00052978 324.24918473 -0.9687945 320.31879197 -0.92852497 316.38686073 C-0.89382721 312.13684741 -0.90567875 307.88692551 -0.91174316 303.6368103 C-0.91592862 296.28229721 -0.89092807 288.92835392 -0.84584045 281.57398415 C-0.78069536 270.94103383 -0.75997585 260.30835775 -0.74993652 249.67522951 C-0.73244754 232.42192083 -0.67926277 215.16891554 -0.60351562 197.91577148 C-0.53003136 181.16057854 -0.47342954 164.40546814 -0.43945312 147.65014648 C-0.43735134 146.61654898 -0.43524955 145.58295147 -0.43308407 144.51803283 C-0.42264342 139.3325376 -0.41253384 134.14704179 -0.40258884 128.96154559 C-0.31971744 85.97409422 -0.17227083 42.9872043 0 0 Z " fill="#CCCBCC" transform="translate(445,416)"/>
<path d="M0 0 C10.53979754 7.39071169 18.82626055 17.7791383 26.49316406 27.97900391 C27.82246349 29.73635865 29.1777987 31.47047184 30.5390625 33.203125 C80.6197119 97.93952847 75.859375 171.1432741 75.859375 250.78515625 C12.499375 250.78515625 -50.860625 250.78515625 -116.140625 250.78515625 C-116.140625 84.07087054 -116.140625 84.07087054 -56.140625 15.78515625 C-55.49351562 15.01558594 -54.84640625 14.24601562 -54.1796875 13.453125 C-39.97794313 -3.35120149 -20.76051094 -11.7819688 0 0 Z " fill="#CCCBCB" transform="translate(529.140625,69.21484375)"/>
<path d="M0 0 C21.12 0 42.24 0 64 0 C64 10.56 64 21.12 64 32 C61.69 32.66 59.38 33.32 57 34 C52.79126897 36.67828338 50.74162813 39.32510344 49 44 C48.24674083 49.81085648 49.52622679 54.34129541 53 59 C56.35532671 61.70917331 59.81626585 62.95406646 64 64 C64 74.56 64 85.12 64 96 C58.72 96 53.44 96 48 96 C48 106.56 48 117.12 48 128 C53.28 128 58.56 128 64 128 C66.15258936 153.16137785 62.09963948 169.43237929 49 191 C53.95 191.33 58.9 191.66 64 192 C64 202.56 64 213.12 64 224 C60.37 224.33 56.74 224.66 53 225 C52.01 225.33 51.02 225.66 50 226 C49.03661192 228.89016424 48.87122831 230.74175255 48.8671875 233.74609375 C48.86589844 234.66583984 48.86460937 235.58558594 48.86328125 236.53320312 C48.86908203 237.97083008 48.86908203 237.97083008 48.875 239.4375 C48.87113281 240.39205078 48.86726563 241.34660156 48.86328125 242.33007812 C48.86521484 243.71163086 48.86521484 243.71163086 48.8671875 245.12109375 C48.86887939 246.38070923 48.86887939 246.38070923 48.87060547 247.66577148 C48.99793149 249.96268485 49.16955629 251.85105526 50 254 C54.22154311 255.53442511 54.22154311 255.53442511 64 256 C64 266.56 64 277.12 64 288 C58.72 288 53.44 288 48 288 C48 298.56 48 309.12 48 320 C53.28 320 58.56 320 64 320 C64 330.56 64 341.12 64 352 C58.72 352 53.44 352 48 352 C48 362.56 48 373.12 48 384 C53.28 384 58.56 384 64 384 C64 415.68 64 447.36 64 480 C53.44 480 42.88 480 32 480 C31.95101563 476.03613281 31.90203125 472.07226562 31.8515625 467.98828125 C31.80690263 464.79134669 31.76041437 461.59445011 31.71270752 458.39756012 C31.66314125 455.04297711 31.61764806 451.6884655 31.578125 448.33374023 C31.53201488 444.4684154 31.4740993 440.60341196 31.4140625 436.73828125 C31.40251129 435.55857254 31.39096008 434.37886383 31.37905884 433.16340637 C31.24192228 425.29397129 30.39148285 417.74407257 29 410 C28.8659375 409.24369797 28.731875 408.48739594 28.59375 407.70817566 C25.75458764 392.66371593 19.90218496 378.84785788 12.5 365.5 C12.16911377 364.90243896 11.83822754 364.30487793 11.49731445 363.68920898 C9.84833639 360.83079768 8.20169418 358.23475413 6.04273272 355.72191447 C-0.32439305 348.09400916 -1.13430172 342.24793236 -0.96203613 332.5037384 C-0.96553114 331.06292676 -0.97254756 329.62212016 -0.98274946 328.1813404 C-1.00052978 324.24918473 -0.9687945 320.31879197 -0.92852497 316.38686073 C-0.89382721 312.13684741 -0.90567875 307.88692551 -0.91174316 303.6368103 C-0.91592862 296.28229721 -0.89092807 288.92835392 -0.84584045 281.57398415 C-0.78069536 270.94103383 -0.75997585 260.30835775 -0.74993652 249.67522951 C-0.73244754 232.42192083 -0.67926277 215.16891554 -0.60351562 197.91577148 C-0.53003136 181.16057854 -0.47342954 164.40546814 -0.43945312 147.65014648 C-0.43735134 146.61654898 -0.43524955 145.58295147 -0.43308407 144.51803283 C-0.42264342 139.3325376 -0.41253384 134.14704179 -0.40258884 128.96154559 C-0.31971744 85.97409422 -0.17227083 42.9872043 0 0 Z " fill="#F1F1F1" transform="translate(445,416)"/>
<path d="M0 0 C42.24 0 84.48 0 128 0 C128 52.8 128 105.6 128 160 C85.76 160 43.52 160 0 160 C0 107.2 0 54.4 0 0 Z " fill="#CDCCCC" transform="translate(605,544)"/>
<path d="M0 0 C42.24 0 84.48 0 128 0 C128 52.8 128 105.6 128 160 C85.76 160 43.52 160 0 160 C0 107.2 0 54.4 0 0 Z " fill="#CDCCCC" transform="translate(285,544)"/>
<path d="M0 0 C0 84.48 0 168.96 0 256 C-31.68 256 -63.36 256 -96 256 C-96.0825 241.0675 -96.165 226.135 -96.25 210.75 C-96.28641602 206.09745117 -96.32283203 201.44490234 -96.36035156 196.65136719 C-96.45660381 175.39752691 -96.13735534 154.92242463 -92 134 C-91.68511907 132.30627713 -91.37087094 130.61243644 -91.05737305 128.91845703 C-83.5383852 88.6722077 -62.79826069 51.49897288 -36 21 C-35.35289062 20.23042969 -34.70578125 19.46085937 -34.0390625 18.66796875 C-24.71150519 7.6310627 -14.86120401 0 0 0 Z " fill="#F2F2F2" transform="translate(509,64)"/>
<path d="M0 0 C42.24 0 84.48 0 128 0 C128 28 128 28 120 39 C118.38535613 41.59585052 116.84115349 44.14134616 115.375 46.8125 C114.99947998 47.49352783 114.62395996 48.17455566 114.23706055 48.8762207 C108.86673368 58.77571117 104.90204379 68.77240446 101.75 79.5625 C101.50354736 80.40063232 101.25709473 81.23876465 101.00317383 82.10229492 C97.80526216 93.54204184 96.70153474 104.89120397 96.5859375 116.73828125 C96.56829346 117.84570679 96.55064941 118.95313232 96.5324707 120.09411621 C96.47017759 124.16677267 96.42346027 128.23965546 96.375 132.3125 C96.25125 141.449375 96.1275 150.58625 96 160 C74.88 160 53.76 160 32 160 C31.625 132.3125 31.625 132.3125 31.52197266 123.65356445 C31.48671503 121.34845905 31.4507882 119.04336374 31.4140625 116.73828125 C31.40270264 115.5740564 31.39134277 114.40983154 31.37963867 113.21032715 C31.24275254 105.32453134 30.39439237 97.76026501 29 90 C28.8659375 89.24369797 28.731875 88.48739594 28.59375 87.70817566 C25.75460626 72.66381464 19.90225442 58.84769917 12.5 45.5 C12.1292334 44.8306543 11.7584668 44.16130859 11.37646484 43.47167969 C9.10514255 39.52181169 6.59240107 36.49819865 3.4375 33.1875 C0 27 0 27 0 0 Z " fill="#CCCBCB" transform="translate(605,736)"/>
<path d="M0 0 C42.24 0 84.48 0 128 0 C128 28 128 28 120 39 C118.38535613 41.59585052 116.84115349 44.14134616 115.375 46.8125 C114.99947998 47.49352783 114.62395996 48.17455566 114.23706055 48.8762207 C108.86673368 58.77571117 104.90204379 68.77240446 101.75 79.5625 C101.50354736 80.40063232 101.25709473 81.23876465 101.00317383 82.10229492 C97.80526216 93.54204184 96.70153474 104.89120397 96.5859375 116.73828125 C96.56829346 117.84570679 96.55064941 118.95313232 96.5324707 120.09411621 C96.47017759 124.16677267 96.42346027 128.23965546 96.375 132.3125 C96.25125 141.449375 96.1275 150.58625 96 160 C74.88 160 53.76 160 32 160 C31.625 132.3125 31.625 132.3125 31.52197266 123.65356445 C31.48671503 121.34845905 31.4507882 119.04336374 31.4140625 116.73828125 C31.40270264 115.5740564 31.39134277 114.40983154 31.37963867 113.21032715 C31.24275254 105.32453134 30.39439237 97.76026501 29 90 C28.8659375 89.24369797 28.731875 88.48739594 28.59375 87.70817566 C25.75460626 72.66381464 19.90225442 58.84769917 12.5 45.5 C12.1292334 44.8306543 11.7584668 44.16130859 11.37646484 43.47167969 C9.10514255 39.52181169 6.59240107 36.49819865 3.4375 33.1875 C0 27 0 27 0 0 Z " fill="#CCCBCB" transform="translate(285,736)"/>
<path d="M0 0 C3.39483926 1.19045697 5.45721185 2.67981983 8.1796875 5.02734375 C9.13101563 5.84460938 10.08234375 6.661875 11.0625 7.50390625 C12.00867188 8.33664062 12.95484375 9.169375 13.9296875 10.02734375 C14.79335938 10.75695312 15.65703125 11.4865625 16.546875 12.23828125 C22.77804927 17.61533817 27.92391175 23.50798189 32.9296875 30.02734375 C33.58582031 30.85621094 34.24195313 31.68507813 34.91796875 32.5390625 C56.95607029 61.37850199 62.9296875 92.2139583 62.9296875 128.02734375 C20.6896875 128.02734375 -21.5503125 128.02734375 -65.0703125 128.02734375 C-65.0703125 84.96350691 -53.85113024 49.57891282 -24.0703125 18.02734375 C-23.44769531 17.351875 -22.82507813 16.67640625 -22.18359375 15.98046875 C-18.21092172 11.8162423 -13.91430775 8.08151789 -9.4453125 4.46484375 C-8.90680664 4.01044922 -8.36830078 3.55605469 -7.81347656 3.08789062 C-5.10518741 0.96172608 -3.477272 0.03096807 0 0 Z " fill="#CCCBCB" transform="translate(670.0703125,383.97265625)"/>
<path d="M0 0 C3.39483926 1.19045697 5.45721185 2.67981983 8.1796875 5.02734375 C9.13101563 5.84460938 10.08234375 6.661875 11.0625 7.50390625 C12.00867188 8.33664062 12.95484375 9.169375 13.9296875 10.02734375 C14.79335938 10.75695312 15.65703125 11.4865625 16.546875 12.23828125 C22.77804927 17.61533817 27.92391175 23.50798189 32.9296875 30.02734375 C33.58582031 30.85621094 34.24195313 31.68507813 34.91796875 32.5390625 C56.95607029 61.37850199 62.9296875 92.2139583 62.9296875 128.02734375 C20.6896875 128.02734375 -21.5503125 128.02734375 -65.0703125 128.02734375 C-65.0703125 84.96350691 -53.85113024 49.57891282 -24.0703125 18.02734375 C-23.44769531 17.351875 -22.82507813 16.67640625 -22.18359375 15.98046875 C-18.21092172 11.8162423 -13.91430775 8.08151789 -9.4453125 4.46484375 C-8.90680664 4.01044922 -8.36830078 3.55605469 -7.81347656 3.08789062 C-5.10518741 0.96172608 -3.477272 0.03096807 0 0 Z " fill="#CCCBCB" transform="translate(350.0703125,383.97265625)"/>
<path d="M0 0 C21.12 0 42.24 0 64 0 C64 52.8 64 105.6 64 160 C42.88 160 21.76 160 0 160 C0 107.2 0 54.4 0 0 Z " fill="#F2F2F2" transform="translate(605,544)"/>
<path d="M0 0 C21.12 0 42.24 0 64 0 C64 52.8 64 105.6 64 160 C42.88 160 21.76 160 0 160 C0 107.2 0 54.4 0 0 Z " fill="#F2F2F2" transform="translate(285,544)"/>
<path d="M0 0 C21.12 0 42.24 0 64 0 C64 52.8 64 105.6 64 160 C53.44 160 42.88 160 32 160 C31.95101562 156.03613281 31.90203125 152.07226562 31.8515625 147.98828125 C31.80690263 144.79134669 31.76041437 141.59445011 31.71270752 138.39756012 C31.66314125 135.04297711 31.61764806 131.6884655 31.578125 128.33374023 C31.53201488 124.4684154 31.4740993 120.60341196 31.4140625 116.73828125 C31.40251129 115.55857254 31.39096008 114.37886383 31.37905884 113.16340637 C31.24192228 105.29397129 30.39148285 97.74407257 29 90 C28.8659375 89.24369797 28.731875 88.48739594 28.59375 87.70817566 C25.75460626 72.66381464 19.90225442 58.84769917 12.5 45.5 C12.1292334 44.8306543 11.7584668 44.16130859 11.37646484 43.47167969 C9.10514255 39.52181169 6.59240107 36.49819865 3.4375 33.1875 C0 27 0 27 0 0 Z " fill="#F2F2F2" transform="translate(605,736)"/>
<path d="M0 0 C21.12 0 42.24 0 64 0 C64 52.8 64 105.6 64 160 C53.44 160 42.88 160 32 160 C31.95101563 156.03613281 31.90203125 152.07226562 31.8515625 147.98828125 C31.80690263 144.79134669 31.76041437 141.59445011 31.71270752 138.39756012 C31.66314125 135.04297711 31.61764806 131.6884655 31.578125 128.33374023 C31.53201488 124.4684154 31.4740993 120.60341196 31.4140625 116.73828125 C31.40251129 115.55857254 31.39096008 114.37886383 31.37905884 113.16340637 C31.24192228 105.29397129 30.39148285 97.74407257 29 90 C28.8659375 89.24369797 28.731875 88.48739594 28.59375 87.70817566 C25.75460626 72.66381464 19.90225442 58.84769917 12.5 45.5 C12.1292334 44.8306543 11.7584668 44.16130859 11.37646484 43.47167969 C9.10514255 39.52181169 6.59240107 36.49819865 3.4375 33.1875 C0 27 0 27 0 0 Z " fill="#F2F2F2" transform="translate(285,736)"/>
<path d="M0 0 C0 41.91 0 83.82 0 127 C-21.12 127 -42.24 127 -64 127 C-64 83.9381479 -52.78173069 48.5493514 -23 17 C-22.36578125 16.31292969 -21.7315625 15.62585938 -21.078125 14.91796875 C-6.83690828 0 -6.83690828 0 0 0 Z " fill="#F1F1F1" transform="translate(669,385)"/>
<path d="M0 0 C0 41.91 0 83.82 0 127 C-21.12 127 -42.24 127 -64 127 C-64 83.9381479 -52.78173069 48.5493514 -23 17 C-22.36578125 16.31292969 -21.7315625 15.62585938 -21.078125 14.91796875 C-6.83690828 0 -6.83690828 0 0 0 Z " fill="#F1F1F1" transform="translate(349,385)"/>
<path d="M0 0 C52.8 0 105.6 0 160 0 C158.70050177 3.89849469 157.55080275 7.15345919 155.7578125 10.75 C155.33113281 11.6059375 154.90445313 12.461875 154.46484375 13.34375 C154.02269531 14.2203125 153.58054687 15.096875 153.125 16 C152.47337891 17.31484375 152.47337891 17.31484375 151.80859375 18.65625 C151.37933594 19.5121875 150.95007813 20.368125 150.5078125 21.25 C150.12254395 22.01828125 149.73727539 22.7865625 149.34033203 23.578125 C148.89802246 24.37734375 148.45571289 25.1765625 148 26 C147.56406525 27.0259024 147.12813049 28.05180481 146.6789856 29.10879517 C143.59589537 32.43611629 142.99032745 32.4592682 138.65960693 32.7215271 C136.37173093 32.73895914 134.08346026 32.72288252 131.79589844 32.68115234 C129.92233673 32.68246658 129.92233673 32.68246658 128.01092529 32.68380737 C124.58893101 32.6803436 121.16910995 32.65026477 117.74750042 32.60836363 C114.17078242 32.57084855 110.59403526 32.56733072 107.01715088 32.56021118 C100.24547202 32.54156435 93.47437454 32.49233044 86.70295167 32.43211424 C78.99329342 32.36504329 71.28360737 32.33205879 63.57372999 32.30194163 C47.71548332 32.23923051 31.85781664 32.13369971 16 32 C14.07866744 28.35660762 12.16380296 24.70985238 10.25 21.0625 C9.71117187 20.04091797 9.17234375 19.01933594 8.6171875 17.96679688 C8.08867187 16.95810547 7.56015625 15.94941406 7.015625 14.91015625 C6.53383789 13.99371338 6.05205078 13.07727051 5.55566406 12.13305664 C3.57743897 8.14897588 1.80657558 4.06479505 0 0 Z " fill="#CCCBCB" transform="translate(429,352)"/>
<path d="M0 0 C12.79227861 15.42246673 16.17841074 37.08636976 16.09765625 56.37109375 C16.0962413 57.64855972 16.09482635 58.9260257 16.09336853 60.24220276 C16.08873516 63.61724746 16.07977023 66.99222297 16.06866455 70.36724854 C16.05838426 73.819696 16.05380178 77.27215086 16.04882812 80.72460938 C16.03867718 87.48311154 16.01909782 94.24149354 16 101 C5.44 101 -5.12 101 -16 101 C-16.09278187 93.69342788 -16.17212904 86.38897153 -16.21972656 79.08227539 C-16.2396075 76.60661827 -16.26672185 74.1310066 -16.30175781 71.65551758 C-16.65941734 45.6989031 -13.5261589 23.99105114 -1 1 C-0.67 0.67 -0.34 0.34 0 0 Z " fill="#CAC9C9" transform="translate(749,795)"/>
<path d="M0 0 C12.79227861 15.42246673 16.17841074 37.08636976 16.09765625 56.37109375 C16.0962413 57.64855972 16.09482635 58.9260257 16.09336853 60.24220276 C16.08873516 63.61724746 16.07977023 66.99222297 16.06866455 70.36724854 C16.05838426 73.819696 16.05380178 77.27215086 16.04882812 80.72460938 C16.03867718 87.48311154 16.01909782 94.24149354 16 101 C5.44 101 -5.12 101 -16 101 C-16.09278187 93.69342788 -16.17212904 86.38897153 -16.21972656 79.08227539 C-16.2396075 76.60661827 -16.26672185 74.1310066 -16.30175781 71.65551758 C-16.65941734 45.6989031 -13.5261589 23.99105114 -1 1 C-0.67 0.67 -0.34 0.34 0 0 Z " fill="#CAC9C9" transform="translate(429,795)"/>
<path d="M0 0 C12.52015501 15.36564479 16.17770112 37.25583287 16.09765625 56.37109375 C16.0962413 57.64855972 16.09482635 58.9260257 16.09336853 60.24220276 C16.08873516 63.61724746 16.07977023 66.99222297 16.06866455 70.36724854 C16.05838426 73.819696 16.05380178 77.27215086 16.04882812 80.72460938 C16.03867718 87.48311154 16.01909782 94.24149354 16 101 C5.44 101 -5.12 101 -16 101 C-16.09278187 93.69342788 -16.17212904 86.38897153 -16.21972656 79.08227539 C-16.2396075 76.60661827 -16.26672185 74.1310066 -16.30175781 71.65551758 C-16.65941734 45.6989031 -13.5261589 23.99105114 -1 1 C-0.67 0.67 -0.34 0.34 0 0 Z " fill="#CAC9C9" transform="translate(589,795)"/>
<path d="M0 0 C12.52015501 15.36564479 16.17770112 37.25583287 16.09765625 56.37109375 C16.0962413 57.64855972 16.09482635 58.9260257 16.09336853 60.24220276 C16.08873516 63.61724746 16.07977023 66.99222297 16.06866455 70.36724854 C16.05838426 73.819696 16.05380178 77.27215086 16.04882812 80.72460938 C16.03867718 87.48311154 16.01909782 94.24149354 16 101 C5.44 101 -5.12 101 -16 101 C-16.09278187 93.69342788 -16.17212904 86.38897153 -16.21972656 79.08227539 C-16.2396075 76.60661827 -16.26672185 74.1310066 -16.30175781 71.65551758 C-16.65941734 45.6989031 -13.5261589 23.99105114 -1 1 C-0.67 0.67 -0.34 0.34 0 0 Z " fill="#CAC9C9" transform="translate(269,795)"/>
<path d="M0 0 C10.56 0 21.12 0 32 0 C32 10.56 32 21.12 32 32 C21.44 32 10.88 32 0 32 C0 21.44 0 10.88 0 0 Z " fill="#7AA2CE" transform="translate(493,768)"/>
<path d="M0 0 C10.56 0 21.12 0 32 0 C32 10.56 32 21.12 32 32 C21.44 32 10.88 32 0 32 C0 21.44 0 10.88 0 0 Z " fill="#7AA2CE" transform="translate(493,704)"/>
<path d="M0 0 C4.186875 -0.061875 8.37375 -0.12375 12.6875 -0.1875 C13.99936279 -0.21481201 15.31122559 -0.24212402 16.6628418 -0.27026367 C17.70609619 -0.27775635 18.74935059 -0.28524902 19.82421875 -0.29296875 C20.88729248 -0.3086792 21.95036621 -0.32438965 23.0456543 -0.34057617 C26.42477331 0.04896775 28.27990964 0.99204546 31 3 C32.38308781 5.76617563 32.11210196 8.01018 32.09765625 11.1015625 C32.09515869 12.19291504 32.09266113 13.28426758 32.09008789 14.40869141 C32.08098389 15.80007324 32.07187988 17.19145508 32.0625 18.625 C32.041875 23.03875 32.02125 27.4525 32 32 C21.44 32 10.88 32 0 32 C0 21.44 0 10.88 0 0 Z " fill="#7AA2CE" transform="translate(493,512)"/>
<path d="M0 0 C4.351875 0.103125 8.70375 0.20625 13.1875 0.3125 C13.1875 10.8725 13.1875 21.4325 13.1875 32.3125 C8.815 32.395 4.4425 32.4775 -0.0625 32.5625 C-2.12226074 32.61712402 -2.12226074 32.61712402 -4.22363281 32.67285156 C-5.30999023 32.6828418 -6.39634766 32.69283203 -7.515625 32.703125 C-9.18093262 32.7345459 -9.18093262 32.7345459 -10.87988281 32.76660156 C-14.4746948 32.20996234 -15.58275721 31.11892291 -17.8125 28.3125 C-19.68431618 24.56886763 -19.12678147 20.12057994 -19.1875 16 C-19.22488281 15.04931641 -19.26226562 14.09863281 -19.30078125 13.11914062 C-19.35486761 8.81927485 -19.17953326 6.00856779 -17.15234375 2.1640625 C-11.68255489 -0.86831167 -6.12584511 -0.20442398 0 0 Z " fill="#7BA2CE" transform="translate(511.8125,639.6875)"/>
<path d="M0 0 C4.98669007 2.49334503 8.49675474 5.99350949 11 11 C11.59057744 16.67862925 11.29370905 21.16922672 8 26 C4.08833782 29.94372499 0.86709292 31.84440892 -4.75 32.3125 C-9.29802763 32.2372569 -12.50819486 30.89802101 -16 28 C-20.08263862 22.73554494 -21.65692502 18.67873773 -21 12 C-16.92244518 2.57944232 -10.23073767 -1.64958148 0 0 Z " fill="#7BA3CE" transform="translate(514,448)"/>
<path d="M0 0 C0.66 0 1.32 0 2 0 C4.13876546 4.25288203 6.27494273 8.50704991 8.40869141 12.76245117 C9.13551292 14.2110536 9.86305074 15.65929686 10.59130859 17.10717773 C11.63565886 19.18380074 12.67745833 21.26168574 13.71875 23.33984375 C14.21091003 24.31642189 14.21091003 24.31642189 14.7130127 25.31272888 C17 29.88612829 17 29.88612829 17 31 C6.44 31 -4.12 31 -15 31 C-10.10235517 20.61105643 -5.21009223 10.23629884 0 0 Z " fill="#7CA3CE" transform="translate(508,577)"/>
</svg>
